<svg xmlns="http://www.w3.org/2000/svg" width="32" height="32" viewBox="0 0 48 48" fill="none">
  <defs>
    <linearGradient id="bg" x1="10%" y1="0%" x2="90%" y2="100%">
      <stop offset="0%" stop-color="#f472b6"/>
      <stop offset="40%" stop-color="#c084fc"/>
      <stop offset="100%" stop-color="#818cf8"/>
    </linearGradient>
    <linearGradient id="ring" x1="0%" y1="0%" x2="100%" y2="100%">
      <stop offset="0%" stop-color="#c084fc" stop-opacity="0.6"/>
      <stop offset="100%" stop-color="#6366f1" stop-opacity="0.3"/>
    </linearGradient>
  </defs>
  <!-- Outer glow ring -->
  <path d="M24 4C24 4 9 19 9 28C9 36.284 15.716 43 24 43C32.284 43 39 36.284 39 28C39 19 24 4 24 4Z" fill="url(#ring)" opacity="0.5"/>
  <!-- Main drop -->
  <path d="M24 7C24 7 12 19 12 27C12 33.627 17.373 39 24 39C30.627 39 36 33.627 36 27C36 19 24 7 24 7Z" fill="url(#bg)"/>
  <!-- PD letters -->
  <text x="24" y="32" text-anchor="middle" font-family="system-ui, -apple-system, sans-serif" font-size="15" font-weight="800" fill="#1a1a2e" opacity="0.7">PD</text>
</svg>
